<svg id="Layer_1" data-name="Layer 1" xmlns="http://www.w3.org/2000/svg" viewBox="0 0 48 48">
  <title>document preview</title>
  <g id="analyze">
    <g id="analyze-2" data-name="analyze">
      <path d="M24,46.86H9a.33.33,0,0,1-.25-.11l-7.5-7.5A.33.33,0,0,1,1.14,39V16.5a.36.36,0,0,1,.36-.36H8.64a15.36,15.36,0,1,1,26.47,11L46.75,38.75l-.5.5L34.6,27.61a15.24,15.24,0,0,1-10.24,4.25V46.5A.36.36,0,0,1,24,46.86ZM9.36,46.14H23.64V31.86a15.39,15.39,0,0,1-15-15H1.86V38.64H9a.36.36,0,0,1,.36.36Zm-7-6.78,6.27,6.27V39.36ZM24,1.86A14.64,14.64,0,1,0,38.64,16.5,14.66,14.66,0,0,0,24,1.86Z"/>
    </g>
  </g>
  <path d="M19.73,19.37a.76.76,0,0,1-.61-.22,1,1,0,0,1-.24-.55h-.05a1.31,1.31,0,0,1-.49.64,1.56,1.56,0,0,1-.91.23,1.69,1.69,0,0,1-1.15-.37,1.31,1.31,0,0,1-.42-1,1.2,1.2,0,0,1,.48-1,2.7,2.7,0,0,1,1.53-.35h.95v-.41a1,1,0,0,0-.27-.74,1.1,1.1,0,0,0-.79-.25,1.54,1.54,0,0,0-.75.17,1.38,1.38,0,0,0-.47.49L16,15.54a1.52,1.52,0,0,1,.25-.35,1.65,1.65,0,0,1,.39-.29,1.89,1.89,0,0,1,.52-.21,2.71,2.71,0,0,1,.66-.08,2,2,0,0,1,1.33.42,1.48,1.48,0,0,1,.49,1.19v2.45h.62v.7Zm-2.1-.55a1.4,1.4,0,0,0,.85-.24.67.67,0,0,0,.34-.58v-.72h-.94a1.69,1.69,0,0,0-.88.17.53.53,0,0,0-.28.49v.19a.61.61,0,0,0,.24.52A1.18,1.18,0,0,0,17.63,18.82Z"/>
  <path d="M22.11,12.71H23V15.5h0a1.6,1.6,0,0,1,.56-.66,1.55,1.55,0,0,1,.86-.23,1.57,1.57,0,0,1,1.32.63,2.92,2.92,0,0,1,.49,1.8,2.92,2.92,0,0,1-.49,1.8,1.57,1.57,0,0,1-1.32.63,1.55,1.55,0,0,1-.86-.22,1.6,1.6,0,0,1-.56-.66h0v.78h-.84Zm2,6.05A1.2,1.2,0,0,0,25,18.4a1.44,1.44,0,0,0,.32-1v-.77a1.42,1.42,0,0,0-.32-1,1.2,1.2,0,0,0-.93-.37,1.42,1.42,0,0,0-.42.06,1,1,0,0,0-.36.18.83.83,0,0,0-.25.28.8.8,0,0,0-.09.39v1.62a.84.84,0,0,0,.09.4.75.75,0,0,0,.25.28.86.86,0,0,0,.36.17A1.42,1.42,0,0,0,24.07,18.76Z"/>
  <path d="M30.22,19.47a2.17,2.17,0,0,1-.91-.17,1.75,1.75,0,0,1-.68-.49,2.33,2.33,0,0,1-.42-.76,3.44,3.44,0,0,1,0-2,2.23,2.23,0,0,1,.42-.76,1.88,1.88,0,0,1,.68-.5,2.33,2.33,0,0,1,.9-.17A1.76,1.76,0,0,1,32,15.7l-.66.36a1.1,1.1,0,0,0-.4-.54,1.33,1.33,0,0,0-1.63.18,1.36,1.36,0,0,0-.33.95v.79a1.37,1.37,0,0,0,.33.95,1.2,1.2,0,0,0,.95.37,1.22,1.22,0,0,0,.74-.21,1.57,1.57,0,0,0,.47-.57l.6.4a1.84,1.84,0,0,1-.66.78A2,2,0,0,1,30.22,19.47Z"/>
</svg>